<?xml version="1.0" encoding="utf-8"?>
<svg viewBox="0 0 400 400" xmlns="http://www.w3.org/2000/svg" xmlnsbx="https://boxy-svg.com">
  <path style="stroke: rgb(0, 0, 0); stroke-linejoin: round; stroke-linecap: round; fill: none; stroke-width: 14px; visibility: hidden;" d="M 7 7 H 366 A 27 27 0 0 1 393 34 V 393 H 34 A 27 27 0 0 1 7 366 V 7 Z" origin="0 0" shape="rect 7 7 386 386 0 27 0 27 1@ffe74ba2"/>
  <path d="M 562.746 710.618 C 565.565 700.02 555.925 688.259 541.213 684.345 C 526.503 680.434 512.294 685.853 509.476 696.449 C 506.657 707.047 516.298 718.808 531.008 722.721 C 545.72 726.632 559.929 721.214 562.746 710.618 Z M 398.98 662.725 C 367.44 648.498 347.736 556.622 365.402 564.592 C 449.109 636.468 460.734 588.789 517.447 611.054 C 473.631 595.509 437.461 664.741 398.98 662.725 C 461.959 860.092 730.997 770.12 666.285 532.036 C 591.819 523.453 543.245 469.781 529.261 390.297 C 520.97 469.62 466.727 527.859 386.798 527.035 C 387.174 545.449 408.096 587.437 452.644 606.389" style="stroke-linejoin: round; fill: none; stroke-width: 16px; stroke: rgb(0, 0, 0);" transform="matrix(-1, 0, 0, -1, 717.504649, 780.594006)" origin="0 0"/>
  <ellipse style="stroke-linejoin: round; stroke-linecap: round;" cx="110.741" cy="171.51" rx="6.543" ry="6.256" transform="matrix(0.743145, 0.669131, -0.669131, 0.743145, 258.567234, -57.586617)" origin="4.863705 0.170826"/>
</svg>